<mxfile host="65bd71144e">
    <diagram id="6Ow7eCNLw3kKzI7DTxEC" name="Page-1">
        <mxGraphModel dx="1368" dy="814" grid="1" gridSize="10" guides="1" tooltips="1" connect="1" arrows="1" fold="1" page="1" pageScale="1" pageWidth="1654" pageHeight="1169" math="0" shadow="0">
            <root>
                <mxCell id="0"/>
                <mxCell id="1" parent="0"/>
                <mxCell id="224" value="" style="group" parent="1" vertex="1" connectable="0">
                    <mxGeometry x="340" y="100" width="1046.14" height="600" as="geometry"/>
                </mxCell>
                <mxCell id="159" value="" style="shape=ext;double=1;rounded=0;whiteSpace=wrap;html=1;fontFamily=Times New Roman;fontSize=18;fillColor=#FFFAF5;strokeColor=none;" parent="224" vertex="1">
                    <mxGeometry x="691.8022580645164" y="83.33333333333333" width="337.4645161290324" height="333.3333333333333" as="geometry"/>
                </mxCell>
                <mxCell id="158" value="" style="shape=ext;double=1;rounded=0;whiteSpace=wrap;html=1;fontFamily=Times New Roman;fontSize=18;fillColor=#FFF5F5;strokeColor=none;" parent="224" vertex="1">
                    <mxGeometry x="16.873225806451618" y="83.33333333333333" width="337.4645161290324" height="333.3333333333333" as="geometry"/>
                </mxCell>
                <mxCell id="157" value="" style="shape=ext;double=1;rounded=0;whiteSpace=wrap;html=1;fontFamily=Times New Roman;fontSize=18;fillColor=#FAFFFD;strokeColor=none;" parent="224" vertex="1">
                    <mxGeometry x="354.33774193548396" y="83.33333333333333" width="337.4645161290324" height="333.3333333333333" as="geometry"/>
                </mxCell>
                <mxCell id="13" value="&lt;font style=&quot;font-size: 18px&quot; face=&quot;Times New Roman&quot;&gt;Insider Trading Reasoning&lt;/font&gt;" style="text;strokeColor=none;fillColor=none;html=1;fontSize=24;fontStyle=1;verticalAlign=middle;align=center;" parent="224" vertex="1">
                    <mxGeometry x="16.873225806451618" width="1012.3935483870971" height="66.66666666666666" as="geometry"/>
                </mxCell>
                <mxCell id="15" value="&lt;font face=&quot;Times New Roman&quot;&gt;&lt;span style=&quot;font-size: 18px&quot;&gt;Day 0&lt;/span&gt;&lt;/font&gt;" style="text;strokeColor=none;fillColor=none;html=1;fontSize=24;fontStyle=1;verticalAlign=middle;align=center;" parent="224" vertex="1">
                    <mxGeometry x="607.4361290322582" y="416.6666666666666" width="168.7322580645162" height="66.66666666666666" as="geometry"/>
                </mxCell>
                <mxCell id="17" value="" style="endArrow=none;dashed=1;html=1;dashPattern=1 3;strokeWidth=2;fontFamily=Times New Roman;fontSize=18;entryX=0;entryY=0;entryDx=0;entryDy=0;" parent="224" target="159" edge="1">
                    <mxGeometry width="50" height="50" relative="1" as="geometry">
                        <mxPoint x="691.8022580645164" y="416.6666666666666" as="sourcePoint"/>
                        <mxPoint x="691.8022580645164" y="149.99999999999994" as="targetPoint"/>
                    </mxGeometry>
                </mxCell>
                <mxCell id="18" value="" style="endArrow=none;dashed=1;html=1;dashPattern=1 3;strokeWidth=2;fontFamily=Times New Roman;fontSize=18;entryX=1;entryY=0;entryDx=0;entryDy=0;" parent="224" target="158" edge="1">
                    <mxGeometry width="50" height="50" relative="1" as="geometry">
                        <mxPoint x="354.33774193548396" y="416.66666666666697" as="sourcePoint"/>
                        <mxPoint x="354.33774193548396" y="149.99999999999994" as="targetPoint"/>
                    </mxGeometry>
                </mxCell>
                <mxCell id="19" value="&lt;font face=&quot;Times New Roman&quot;&gt;&lt;span style=&quot;font-size: 18px&quot;&gt;-30 Days&lt;/span&gt;&lt;/font&gt;" style="text;strokeColor=none;fillColor=none;html=1;fontSize=24;fontStyle=1;verticalAlign=middle;align=center;" parent="224" vertex="1">
                    <mxGeometry x="269.9716129032259" y="416.6666666666666" width="168.7322580645162" height="66.66666666666666" as="geometry"/>
                </mxCell>
                <mxCell id="20" value="" style="shape=curlyBracket;whiteSpace=wrap;html=1;rounded=1;flipH=1;fontFamily=Times New Roman;fontSize=18;fillColor=#B3B3B3;rotation=90;" parent="224" vertex="1">
                    <mxGeometry x="506.19677419354855" y="350" width="33.746451612903236" height="333.3333333333333" as="geometry"/>
                </mxCell>
                <mxCell id="21" value="&lt;font face=&quot;Times New Roman&quot;&gt;&lt;span style=&quot;font-size: 18px&quot;&gt;Studied Timeframe&lt;/span&gt;&lt;/font&gt;" style="text;strokeColor=none;fillColor=none;html=1;fontSize=24;fontStyle=1;verticalAlign=middle;align=center;" parent="224" vertex="1">
                    <mxGeometry x="438.70387096774203" y="533.3333333333333" width="168.7322580645162" height="66.66666666666666" as="geometry"/>
                </mxCell>
                <mxCell id="22" value="" style="endArrow=classic;startArrow=classic;html=1;fontFamily=Times New Roman;fontSize=18;" parent="224" edge="1">
                    <mxGeometry width="50" height="50" relative="1" as="geometry">
                        <mxPoint y="416.6666666666666" as="sourcePoint"/>
                        <mxPoint x="1046.1400000000003" y="416.6666666666666" as="targetPoint"/>
                    </mxGeometry>
                </mxCell>
                <mxCell id="213" value="&lt;span&gt;Addresses that have performed transactions 30 days before listing&lt;/span&gt;" style="text;html=1;strokeColor=none;fillColor=none;align=center;verticalAlign=middle;whiteSpace=wrap;rounded=0;fontFamily=Times New Roman;fontSize=14;fontStyle=1" parent="224" vertex="1">
                    <mxGeometry x="16.873225806451618" y="83.33333333333333" width="337.4645161290324" height="49.99999999999999" as="geometry"/>
                </mxCell>
                <mxCell id="214" value="&lt;span&gt;Addresses that have performed transactions after listing date&lt;/span&gt;" style="text;html=1;strokeColor=none;fillColor=none;align=center;verticalAlign=middle;whiteSpace=wrap;rounded=0;fontFamily=Times New Roman;fontSize=14;fontStyle=1" parent="224" vertex="1">
                    <mxGeometry x="691.8022580645164" y="83.33333333333333" width="337.4645161290324" height="49.99999999999999" as="geometry"/>
                </mxCell>
                <mxCell id="215" value="&lt;span&gt;Addresses that have performed transactions 30 days before and the listing date (exclusive)&lt;/span&gt;" style="text;html=1;strokeColor=none;fillColor=none;align=center;verticalAlign=middle;whiteSpace=wrap;rounded=0;fontFamily=Times New Roman;fontSize=14;fontStyle=1" parent="224" vertex="1">
                    <mxGeometry x="354.33774193548396" y="83.33333333333333" width="337.4645161290324" height="49.99999999999999" as="geometry"/>
                </mxCell>
                <mxCell id="219" value="&lt;br&gt;&lt;font size=&quot;3&quot;&gt;&lt;b&gt;C&lt;/b&gt;&lt;/font&gt;" style="shape=actor;whiteSpace=wrap;html=1;fillColor=#6287a2;" parent="224" vertex="1">
                    <mxGeometry x="174.98322580645169" y="224.99999999999997" width="67.49290322580647" height="66.66666666666666" as="geometry"/>
                </mxCell>
                <mxCell id="29" value="&lt;br&gt;&lt;font size=&quot;3&quot;&gt;&lt;b&gt;B&lt;/b&gt;&lt;br&gt;&lt;/font&gt;" style="shape=actor;whiteSpace=wrap;html=1;fillColor=#5ec0ca;" parent="224" vertex="1">
                    <mxGeometry x="107.48903225806455" y="225.00333333333336" width="67.49290322580647" height="66.66666666666666" as="geometry"/>
                </mxCell>
                <mxCell id="30" value="&lt;font style=&quot;font-size: 18px&quot;&gt;&lt;b&gt;&lt;br&gt;A&lt;/b&gt;&lt;/font&gt;" style="shape=actor;whiteSpace=wrap;html=1;fillColor=#efd199;" parent="224" vertex="1">
                    <mxGeometry x="39.99935483870969" y="225" width="67.49290322580647" height="66.66666666666666" as="geometry"/>
                </mxCell>
                <mxCell id="226" value="&lt;font style=&quot;font-size: 18px&quot;&gt;&lt;b&gt;&lt;br&gt;A&lt;/b&gt;&lt;/font&gt;" style="shape=actor;whiteSpace=wrap;html=1;fillColor=#efd199;" parent="224" vertex="1">
                    <mxGeometry x="379.9993548387096" y="225.00000000000003" width="67.49290322580647" height="66.66666666666666" as="geometry"/>
                </mxCell>
                <mxCell id="227" value="&lt;font style=&quot;font-size: 18px&quot;&gt;&lt;b&gt;&lt;br&gt;A&lt;/b&gt;&lt;/font&gt;" style="shape=actor;whiteSpace=wrap;html=1;fillColor=#efd199;" parent="224" vertex="1">
                    <mxGeometry x="719.9993548387097" y="225.00000000000003" width="67.49290322580647" height="66.66666666666666" as="geometry"/>
                </mxCell>
                <mxCell id="228" value="&lt;br&gt;&lt;font size=&quot;3&quot;&gt;&lt;b&gt;B&lt;/b&gt;&lt;br&gt;&lt;/font&gt;" style="shape=actor;whiteSpace=wrap;html=1;fillColor=#5ec0ca;" parent="224" vertex="1">
                    <mxGeometry x="447.4890322580645" y="225.00333333333333" width="67.49290322580647" height="66.66666666666666" as="geometry"/>
                </mxCell>
                <mxCell id="230" value="&lt;br&gt;&lt;font size=&quot;3&quot;&gt;&lt;b&gt;D&lt;/b&gt;&lt;/font&gt;" style="shape=actor;whiteSpace=wrap;html=1;fillColor=#80c8bc;" parent="224" vertex="1">
                    <mxGeometry x="514.9832258064516" y="225" width="67.49290322580647" height="66.66666666666666" as="geometry"/>
                </mxCell>
                <mxCell id="231" value="&lt;br&gt;&lt;font size=&quot;3&quot;&gt;&lt;b&gt;D&lt;/b&gt;&lt;/font&gt;" style="shape=actor;whiteSpace=wrap;html=1;fillColor=#80c8bc;" parent="224" vertex="1">
                    <mxGeometry x="787.4932258064516" y="225" width="67.49290322580647" height="66.66666666666666" as="geometry"/>
                </mxCell>
                <mxCell id="232" value="&lt;br&gt;&lt;font size=&quot;3&quot;&gt;&lt;b&gt;F&lt;/b&gt;&lt;/font&gt;" style="shape=actor;whiteSpace=wrap;html=1;fillColor=#008585;" parent="224" vertex="1">
                    <mxGeometry x="854.9832258064516" y="225" width="67.49290322580647" height="66.66666666666666" as="geometry"/>
                </mxCell>
                <mxCell id="233" value="&lt;br&gt;&lt;font size=&quot;3&quot;&gt;&lt;b&gt;E&lt;/b&gt;&lt;/font&gt;" style="shape=actor;whiteSpace=wrap;html=1;fillColor=#ce8f5a;" parent="224" vertex="1">
                    <mxGeometry x="580.0032258064516" y="225" width="67.49290322580647" height="66.66666666666666" as="geometry"/>
                </mxCell>
                <mxCell id="234" value="&lt;br&gt;&lt;font size=&quot;3&quot;&gt;&lt;b&gt;G&lt;/b&gt;&lt;/font&gt;" style="shape=actor;whiteSpace=wrap;html=1;fillColor=#999999;" parent="224" vertex="1">
                    <mxGeometry x="922.4732258064516" y="225" width="67.49290322580647" height="66.66666666666666" as="geometry"/>
                </mxCell>
                <mxCell id="235" value="&lt;br&gt;&lt;font size=&quot;3&quot;&gt;&lt;b&gt;F&lt;/b&gt;&lt;/font&gt;" style="shape=actor;whiteSpace=wrap;html=1;fillColor=#008585;" parent="224" vertex="1">
                    <mxGeometry x="242.47322580645164" y="225" width="67.49290322580647" height="66.66666666666666" as="geometry"/>
                </mxCell>
            </root>
        </mxGraphModel>
    </diagram>
</mxfile>